<?xml version="1.0" encoding="UTF-8"?>
<svg id="Layer_2" data-name="Layer 2" xmlns="http://www.w3.org/2000/svg" viewBox="0 0 20 20.04">
  <defs>
    <style>
      .cls-1 {
        fill: none;
      }

      .cls-2 {
        fill: #333;
      }

      .cls-3 {
        fill: #757474;
      }

      .cls-4 {
        fill: #afafaf;
      }
    </style>
  </defs>
  <g id="bk">
    <g>
      <rect class="cls-1" width="20" height="20"/>
      <g>
        <path class="cls-2" d="M10,.04v1.65c5.16,0,9.22,4.68,8.18,10.02-.63,3.25-3.25,5.88-6.51,6.51-5.34,1.04-10.02-3.03-10.02-8.18,0-.97.17-1.89.47-2.76l-1.56-.55C.09,8.1-.11,9.58.06,11.13c.49,4.62,4.25,8.38,8.88,8.86,6,.62,11.06-4.07,11.06-9.94C20,4.52,15.52.04,10,.04Z"/>
        <path class="cls-3" d="M10,2.52v1.65c3.24,0,5.87,2.63,5.87,5.87s-2.63,5.87-5.87,5.87c-2.38,0-4.44-1.42-5.35-3.47l-1.51.68c1.18,2.62,3.81,4.44,6.86,4.44,4.15,0,7.52-3.37,7.52-7.52s-3.37-7.52-7.52-7.52Z"/>
        <path class="cls-4" d="M10,5v1.65c1.87,0,3.39,1.52,3.39,3.39s-1.52,3.39-3.39,3.39c-.6,0-1.16-.16-1.64-.43l-.8,1.45c.72.4,1.56.63,2.45.63,2.78,0,5.04-2.26,5.04-5.04s-2.26-5.04-5.04-5.04Z"/>
      </g>
    </g>
  </g>
</svg>