<?xml version="1.0" encoding="UTF-8"?>
<svg id="Layer_2" data-name="Layer 2" xmlns="http://www.w3.org/2000/svg" viewBox="0 0 20 20">
  <defs>
    <style>
      .cls-1 {
        fill: none;
      }

      .cls-2 {
        fill: #e0e0e0;
      }

      .cls-3 {
        fill: #333;
      }

      .cls-4 {
        fill: #515151;
      }

      .cls-5 {
        fill: #757474;
      }
    </style>
  </defs>
  <g id="bk">
    <g>
      <rect class="cls-1" width="20" height="20"/>
      <g>
        <g>
          <path class="cls-3" d="M5.14,9.92c-1.02,1.15-1.64,2.66-1.64,4.31H.5c0-2.48.95-4.74,2.54-6.43l2.1,2.12Z"/>
          <path class="cls-4" d="M9.73,4.74v3.01c-1.74.06-3.3.81-4.42,1.98l-2.1-2.12c1.65-1.72,3.97-2.8,6.52-2.87Z"/>
          <path class="cls-5" d="M16.65,7.46l-2.09,2.15c-.43-.43-.92-.8-1.46-1.09-.14-.08-.29-.16-.45-.22-.81-.37-1.71-.57-2.65-.57h-.02v-3h.02c2.59,0,4.94,1.04,6.65,2.73Z"/>
          <path class="cls-2" d="M19.5,14.23h-3c0-1.71-.66-3.27-1.76-4.44l2.09-2.15c1.65,1.71,2.67,4.02,2.67,6.59Z"/>
        </g>
        <g>
          <circle class="cls-3" cx="10" cy="14.23" r="1.05"/>
          <path class="cls-3" d="M10,14.48s-.08,0-.11-.03c-.12-.06-.17-.21-.11-.33l3.3-6.68c.06-.12.21-.17.33-.11.12.06.17.21.11.33l-3.3,6.68c-.04.09-.13.14-.22.14Z"/>
        </g>
      </g>
    </g>
  </g>
</svg>