<?xml version="1.0" encoding="UTF-8"?>
<svg id="Layer_2" data-name="Layer 2" xmlns="http://www.w3.org/2000/svg" viewBox="0 0 20 20">
  <defs>
    <style>
      .cls-1 {
        fill: none;
      }

      .cls-2 {
        fill: #333;
      }

      .cls-3 {
        fill: #afafaf;
      }
    </style>
  </defs>
  <g id="bk">
    <g>
      <rect class="cls-1" width="20" height="20"/>
      <g>
        <polygon class="cls-3" points="10 2.23 17.74 8.4 14.05 16.52 5.95 16.52 1.63 8.26 10 2.23"/>
        <path class="cls-2" d="M19.92,7.64L10.2.57l-.08-.06c-.07-.06-.17-.06-.24,0l-.08.06L.08,7.64c-.07.05-.1.14-.07.22l3.72,11.49.02.05c.03.08.1.14.19.14h12.11c.09,0,.16-.06.19-.14l.02-.05,3.72-11.49c.03-.09,0-.18-.07-.22ZM10.2,1.06l9.17,6.66-4,1.3-5.17-3.76V1.06ZM10.2,5.77l4.7,3.42-4.7,1.53v-4.94ZM15.02,9.57l-1.8,5.55-2.9-4.02,4.7-1.53ZM10,11.33l2.88,4h-5.75l2.88-4ZM9.68,11.09l-2.9,4.02-1.8-5.55,4.7,1.53ZM5.1,9.18l4.7-3.42v4.94l-4.7-1.53ZM9.8,1.06v4.21l-5.17,3.76L.63,7.73,9.8,1.06ZM4.02,18.95L.52,8.12l4,1.3,1.98,6.1-2.47,3.43ZM4.38,19.13l2.45-3.41h6.33l2.45,3.41H4.38ZM15.98,18.95l-2.47-3.43,1.98-6.1,4-1.3-3.51,10.83Z"/>
      </g>
      <path class="cls-1" d="M9.8.3l.08-.06c.07-.06.17-.06.24,0l.08.06"/>
    </g>
  </g>
</svg>