<?xml version="1.0" encoding="UTF-8"?>
<svg id="Layer_2" data-name="Layer 2" xmlns="http://www.w3.org/2000/svg" viewBox="0 0 20 20">
  <defs>
    <style>
      .cls-1 {
        fill: #525252;
      }

      .cls-2 {
        fill: #181818;
      }

      .cls-3 {
        fill: #767676;
      }

      .cls-4 {
        fill: #0c0c0c;
      }

      .cls-5 {
        fill: #5e5e5e;
      }

      .cls-6 {
        fill: #cdcdcd;
      }

      .cls-7 {
        fill: none;
      }

      .cls-8 {
        fill: #8d8d8d;
      }

      .cls-9 {
        fill: #2f2f2f;
      }

      .cls-10 {
        fill: #f2f2f2;
      }

      .cls-11 {
        fill: #a0a0a0;
      }

      .cls-12 {
        fill: #e3e3e3;
      }

      .cls-13 {
        fill: #3b3b3b;
      }

      .cls-14 {
        fill: #474747;
      }

      .cls-15 {
        fill: #999;
      }

      .cls-16 {
        fill: #a8a8a8;
      }

      .cls-17 {
        fill: #232323;
      }

      .cls-18 {
        fill: #ebebeb;
      }

      .cls-19 {
        fill: #dcdcdc;
      }

      .cls-20 {
        fill: #d4d4d4;
      }

      .cls-21 {
        fill: #b7b7b7;
      }

      .cls-22 {
        fill: #bebebe;
      }

      .cls-23 {
        fill: #818181;
      }

      .cls-24 {
        fill: #afafaf;
      }
    </style>
  </defs>
  <g id="bk">
    <g>
      <g>
        <path class="cls-10" d="M9.63,0l.18,4.67c.12-.01.24-.01.36,0l.24-4.67h-.77Z"/>
        <path class="cls-4" d="M12.23.24l-1.04,4.56c.12.02.23.05.35.09L12.97.44l-.75-.2Z"/>
        <path class="cls-2" d="M14.68,1.15l-2.18,4.14c.11.05.21.11.31.18l2.54-3.93-.67-.39Z"/>
        <path class="cls-17" d="M16.81,2.66l-3.18,3.43c.09.08.18.16.25.25l3.47-3.14-.55-.55Z"/>
        <path class="cls-9" d="M18.47,4.68l-3.96,2.49c.07.1.13.2.18.31l4.17-2.13-.39-.67Z"/>
        <path class="cls-13" d="M19.56,7.05l-4.47,1.38c.04.11.07.23.09.35l4.58-.98-.2-.75Z"/>
        <path class="cls-14" d="M20,9.63l-4.67.18c.01.12.01.24,0,.36l4.67.24v-.77Z"/>
        <path class="cls-1" d="M19.76,12.23l-4.56-1.04c-.02.12-.05.23-.09.35l4.45,1.44.2-.75Z"/>
        <path class="cls-5" d="M18.85,14.68l-4.14-2.18c-.05.11-.11.21-.18.31l3.93,2.54.39-.67Z"/>
        <path class="cls-3" d="M17.34,16.81l-3.43-3.18c-.08.09-.16.18-.25.25l3.14,3.47.55-.55Z"/>
        <path class="cls-23" d="M15.32,18.47l-2.49-3.96c-.1.07-.2.13-.31.18l2.13,4.17.67-.39Z"/>
        <path class="cls-8" d="M12.95,19.56l-1.38-4.47c-.11.04-.23.07-.35.09l.98,4.58.75-.2Z"/>
        <path class="cls-15" d="M10.37,20l-.18-4.67c-.12.01-.24.01-.36,0l-.24,4.67h.77Z"/>
        <path class="cls-15" d="M7.77,19.76l1.04-4.56c-.12-.02-.23-.05-.35-.09l-1.44,4.45.75.2Z"/>
        <path class="cls-11" d="M5.32,18.85l2.18-4.14c-.11-.05-.21-.11-.31-.18l-2.54,3.93.67.39Z"/>
        <path class="cls-16" d="M3.19,17.34l3.18-3.43c-.09-.08-.18-.16-.25-.25l-3.47,3.14.55.55Z"/>
        <path class="cls-24" d="M1.53,15.32l3.96-2.49c-.07-.1-.13-.2-.18-.31l-4.17,2.13.39.67Z"/>
        <path class="cls-21" d="M.44,12.95l4.47-1.38c-.04-.11-.07-.23-.09-.35L.24,12.2l.2.75Z"/>
        <path class="cls-22" d="M0,10.37l4.67-.18c-.01-.12-.01-.24,0-.36l-4.67-.24v.77Z"/>
        <path class="cls-6" d="M.24,7.77l4.56,1.04c.02-.12.05-.23.09-.35L.44,7.03l-.2.75Z"/>
        <path class="cls-20" d="M1.15,5.32l4.14,2.18c.05-.11.11-.21.18-.31l-3.93-2.54-.39.67Z"/>
        <path class="cls-19" d="M2.66,3.19l3.43,3.18c.08-.09.16-.18.25-.25l-3.14-3.47-.55.55Z"/>
        <path class="cls-12" d="M4.68,1.53l2.49,3.96c.1-.07.2-.13.31-.18L5.35,1.14l-.67.39Z"/>
        <path class="cls-18" d="M7.05.44l1.38,4.47c.11-.04.23-.07.35-.09L7.8.24l-.75.2Z"/>
      </g>
      <rect class="cls-7" x="0" y="0" width="20" height="20"/>
    </g>
  </g>
</svg>