<?xml version="1.0" encoding="UTF-8"?>
<svg id="Layer_2" data-name="Layer 2" xmlns="http://www.w3.org/2000/svg" viewBox="0 0 20 20">
  <defs>
    <style>
      .cls-1 {
        fill: none;
      }

      .cls-2 {
        fill: #d3d3d3;
      }

      .cls-3 {
        fill: #6d6d6d;
      }

      .cls-4 {
        fill: #333;
      }
    </style>
  </defs>
  <g id="bk">
    <g>
      <rect class="cls-1" width="20" height="20"/>
      <g>
        <path class="cls-4" d="M16.69,1.57l-1.3,1.52-1.96,2.28-1.95,2.28c.27.29.45.67.5,1.09h8.01c-.06-2.84-1.32-5.39-3.3-7.17ZM16.36,13.84l-2.44-1.74-2.46-1.76c-.35.4-.87.65-1.45.65l-.35,2.99-.36,2.97-.24,1.99c.31.04.62.05.94.05,3.26,0,6.16-1.56,7.98-3.99l-1.62-1.16ZM8.52,10.32l-2.49,1.7-2.47,1.69c1.22,1.69,3.1,2.87,5.25,3.19l.36-2.99.35-2.98c-.39-.1-.74-.32-1-.61ZM8.01,8.99v-.08l-2.96-.49-2.96-.49-1.97-.33c-.07.45-.11.92-.11,1.39C0,11.01.6,12.88,1.61,14.43h.01l1.65-1.13,2.46-1.69,2.49-1.71c-.14-.27-.22-.58-.22-.91ZM4.16,3.52c-.99,1.07-1.71,2.41-2,3.91l2.95.49,2.97.5c.23-.75.88-1.31,1.67-1.41V1.01c-2.2.06-4.18,1.02-5.59,2.52ZM11.98,9.24c-.03.25-.1.49-.22.7l2.45,1.75,2.44,1.74c.81-1.2,1.3-2.64,1.34-4.19h-6.01ZM10.26,4.01v3.01c.32.04.61.15.86.31l1.95-2.28c-.79-.62-1.76-.99-2.81-1.04Z"/>
        <path class="cls-3" d="M13.92,12.1l-2.46-1.76c-.35.4-.87.65-1.45.65l-.35,2.99-.36,2.97c.23.03.47.04.7.04,2.59,0,4.9-1.23,6.36-3.15l-2.44-1.74ZM8.52,10.32l-2.49,1.7-2.47,1.69c1.22,1.69,3.1,2.87,5.25,3.19l.36-2.99.35-2.98c-.39-.1-.74-.32-1-.61ZM8.01,8.99v-.08l-2.96-.49-2.96-.49c-.05.35-.08.7-.08,1.06,0,1.59.47,3.07,1.27,4.31l2.46-1.69,2.49-1.71c-.14-.27-.22-.58-.22-.91ZM4.16,3.52c-.99,1.07-1.71,2.41-2,3.91l2.95.49,2.97.5c.23-.75.88-1.31,1.67-1.41V1.01c-2.2.06-4.18,1.02-5.59,2.52ZM11.98,9.24c-.03.25-.1.49-.22.7l2.45,1.75,2.44,1.74c.81-1.2,1.3-2.64,1.34-4.19h-6.01ZM15.4,3.09l-1.96,2.28-1.95,2.28c.27.29.45.67.5,1.09h6.01c-.06-2.24-1.05-4.25-2.6-5.65ZM10.26,4.01v3.01c.32.04.61.15.86.31l1.95-2.28c-.79-.62-1.76-.99-2.81-1.04Z"/>
        <path class="cls-2" d="M11.46,10.34c-.35.4-.87.65-1.45.65l-.35,2.99c.11.01.23.01.34.01,1.58,0,3-.74,3.92-1.89l-2.46-1.76ZM8.52,10.32l-2.49,1.7c.75.99,1.86,1.68,3.14,1.89l.35-2.98c-.39-.1-.74-.32-1-.61ZM5.11,7.92l2.97.5c.23-.75.88-1.31,1.67-1.41v-3.01c-2.28.11-4.16,1.75-4.64,3.92ZM8.01,8.99v-.08l-2.96-.49c-.03.19-.04.38-.04.57,0,.96.27,1.86.73,2.62l2.49-1.71c-.14-.27-.22-.58-.22-.91ZM11.98,9.24c-.03.25-.1.49-.22.7l2.45,1.75c.46-.71.74-1.55.78-2.45h-3.01ZM13.43,5.38l-1.95,2.28c.27.29.45.67.5,1.09h3.01c-.06-1.34-.65-2.53-1.56-3.37ZM10.26,4.01v3.01c.32.04.61.15.86.31l1.95-2.28c-.79-.62-1.76-.99-2.81-1.04Z"/>
      </g>
    </g>
  </g>
</svg>