<?xml version="1.0" encoding="UTF-8"?>
<svg id="Layer_2" data-name="Layer 2" xmlns="http://www.w3.org/2000/svg" viewBox="0 0 20 20">
  <defs>
    <style>
      .cls-1 {
        fill: #fff;
      }

      .cls-2 {
        fill: #cecece;
      }

      .cls-3 {
        fill: none;
      }

      .cls-4 {
        fill: #e5e5e5;
      }

      .cls-5 {
        fill: #dbdbdb;
      }

      .cls-6 {
        fill: #efefef;
      }
    </style>
  </defs>
  <g id="wh">
    <g>
      <rect class="cls-3" width="20" height="20"/>
      <g>
        <path class="cls-2" d="M19.98,10.84c-.22,4.06-2.86,7.47-6.49,8.82l-1.74-4.47c1.85-.66,3.21-2.34,3.42-4.35h4.81Z"/>
        <path class="cls-5" d="M20,10.3c0,.18,0,.37-.02.54h-4.81c.02-.18.02-.36.02-.54,0-2.12-1.26-3.94-3.09-4.75l1.75-4.48c3.6,1.52,6.14,5.08,6.14,9.23Z"/>
        <path class="cls-4" d="M13.86,1.07l-1.75,4.48c-.64-.29-1.36-.45-2.11-.45s-1.41.14-2.03.41l-1.74-4.47c1.16-.47,2.44-.74,3.78-.74s2.67.27,3.86.77Z"/>
        <path class="cls-6" d="M4.8,10.3c0,.18,0,.36.02.54H.02c0-.18-.02-.36-.02-.54C0,6.12,2.57,2.52,6.22,1.04l1.74,4.47c-1.86.79-3.17,2.64-3.17,4.79Z"/>
        <path class="cls-1" d="M8.34,15.23l-1.74,4.47C2.9,18.37.23,14.93.02,10.84h4.81c.22,2.05,1.62,3.74,3.51,4.38Z"/>
        <circle class="cls-1" cx="10" cy="10" r="1.38"/>
        <path class="cls-1" d="M12.29,12.85c-.06,0-.13-.02-.18-.07l-7.2-7.2c-.1-.1-.1-.26,0-.35s.26-.1.35,0l7.2,7.2c.1.1.1.26,0,.35-.05.05-.11.07-.18.07Z"/>
      </g>
    </g>
  </g>
</svg>