<?xml version="1.0" encoding="UTF-8"?>
<svg id="Layer_2" data-name="Layer 2" xmlns="http://www.w3.org/2000/svg" viewBox="0 0 20.5 20.5">
  <defs>
    <style>
      .cls-1 {
        fill: #fff;
      }

      .cls-1, .cls-2, .cls-3, .cls-4, .cls-5, .cls-6 {
        stroke: #fff;
        stroke-miterlimit: 10;
        stroke-width: .5px;
      }

      .cls-7 {
        fill: none;
      }

      .cls-2 {
        fill: #aaa;
      }

      .cls-3 {
        fill: #ccc;
      }

      .cls-4 {
        fill: #afafaf;
      }

      .cls-5 {
        fill: #e0e0e0;
      }

      .cls-6 {
        fill: #ddd;
      }
    </style>
  </defs>
  <g id="wh">
    <g>
      <g>
        <rect class="cls-2" x=".25" y=".25" width="5" height="5"/>
        <rect class="cls-3" x="5.25" y=".25" width="5" height="5"/>
        <rect class="cls-2" x="10.25" y=".25" width="5" height="5"/>
        <rect class="cls-3" x="15.25" y=".25" width="5" height="5"/>
        <rect class="cls-1" x="15.25" y="5.25" width="5" height="5"/>
        <rect class="cls-1" x=".25" y="5.25" width="5" height="5"/>
        <rect class="cls-5" x=".25" y="10.25" width="5" height="5"/>
        <rect class="cls-4" x="15.25" y="10.25" width="5" height="5"/>
        <rect class="cls-6" x="15.25" y="15.25" width="5" height="5"/>
        <rect class="cls-1" x="10.25" y="15.25" width="5" height="5"/>
        <rect class="cls-3" x="5.25" y="15.25" width="5" height="5"/>
        <rect class="cls-1" x=".25" y="15.25" width="5" height="5"/>
        <rect class="cls-2" x="5.25" y="5.25" width="5" height="5"/>
        <rect class="cls-2" x="10.25" y="10.25" width="5" height="5"/>
        <rect class="cls-1" x="5.25" y="10.25" width="5" height="5"/>
        <rect class="cls-1" x="10.25" y="5.25" width="5" height="5"/>
      </g>
      <rect class="cls-7" x=".25" y=".25" width="20" height="20"/>
    </g>
  </g>
</svg>