<?xml version="1.0" encoding="UTF-8"?>
<svg id="Layer_2" data-name="Layer 2" xmlns="http://www.w3.org/2000/svg" viewBox="0 0 20 20">
  <defs>
    <style>
      .cls-1 {
        fill: #fff;
      }

      .cls-2 {
        fill: #cecece;
      }

      .cls-3 {
        fill: none;
      }

      .cls-4 {
        fill: #e5e5e5;
      }
    </style>
  </defs>
  <g id="wh">
    <g>
      <rect class="cls-3" width="20" height="20"/>
      <g>
        <path class="cls-2" d="M19.99,14.25h-4.79c-.02-1.41-.6-2.68-1.52-3.61l3.3-3.3c1.81,1.76,2.94,4.2,3.02,6.9Z"/>
        <path class="cls-1" d="M6.32,10.64c-.92.93-1.5,2.2-1.52,3.61H0c.07-2.7,1.21-5.14,3.02-6.9l3.3,3.3Z"/>
        <path class="cls-4" d="M10,4.5c-2.72,0-5.18,1.09-6.98,2.84l3.3,3.3c.94-.94,2.24-1.52,3.68-1.52s2.74.58,3.68,1.52l3.3-3.3c-1.8-1.75-4.26-2.84-6.98-2.84Z"/>
        <g>
          <circle class="cls-1" cx="10.14" cy="14.11" r="1.05"/>
          <path class="cls-1" d="M9.16,15.75s-.1-.01-.14-.05c-.11-.08-.14-.23-.06-.35l4.28-6.11c.08-.11.23-.14.35-.06.11.08.14.23.06.35l-4.28,6.11c-.05.07-.13.11-.2.11Z"/>
        </g>
      </g>
    </g>
  </g>
</svg>