<?xml version="1.0" encoding="UTF-8"?>
<svg id="Layer_2" data-name="Layer 2" xmlns="http://www.w3.org/2000/svg" viewBox="0 0 20 20">
  <defs>
    <style>
      .cls-1 {
        fill: #fff;
      }

      .cls-2 {
        fill: #cecece;
      }

      .cls-3, .cls-4 {
        fill: none;
      }

      .cls-5 {
        fill: #dbdbdb;
      }

      .cls-6 {
        fill: #efefef;
      }

      .cls-4 {
        opacity: .8;
      }
    </style>
  </defs>
  <g id="wh">
    <g>
      <rect class="cls-3" width="20" height="20"/>
      <g>
        <path class="cls-4" d="M18.98,5.61c-.11-.24-.24-.48-.38-.7C16.93,2.08,13.9.14,10.4.02c-.13-.02-.26-.02-.4-.02s-.27,0-.4.02C4.26.22,0,4.62,0,10c0,2.99,1.32,5.68,3.4,7.51.2.18.41.34.62.5,1.66,1.25,3.74,1.98,5.98,1.98s4.39-.77,6.07-2.06c.22-.16.42-.33.62-.51,2.03-1.82,3.31-4.48,3.31-7.43,0-1.58-.37-3.06-1.02-4.39Z"/>
        <path class="cls-6" d="M15.05,16.71c-1.41,1.06-3.16,1.69-5.05,1.69s-3.58-.6-4.97-1.63l1.51-1.87.5-.62,2.95-3.64,3,3.61.51.62,1.54,1.86Z"/>
        <path class="cls-5" d="M16,10c0,1.71-.72,3.27-1.87,4.34l-.51-.62-3-3.61,4.14-2.22.7-.38c.34.75.54,1.6.54,2.49Z"/>
        <path class="cls-2" d="M14.38,7.19l-3.98,2.14v-4.5c1.67.11,3.12,1.03,3.98,2.37Z"/>
        <path class="cls-1" d="M9.6.05v9.84l-6.2,7.66c-2.08-1.83-3.4-4.52-3.4-7.51C0,4.65,4.26.25,9.6.05Z"/>
      </g>
    </g>
  </g>
</svg>