<?xml version="1.0" encoding="UTF-8"?>
<svg id="Layer_2" data-name="Layer 2" xmlns="http://www.w3.org/2000/svg" viewBox="0 0 20 20">
  <defs>
    <style>
      .cls-1 {
        fill: #fff;
      }

      .cls-2 {
        fill: none;
      }
    </style>
  </defs>
  <g id="wh">
    <g>
      <g>
        <path class="cls-1" d="M12.88,12.89V2.55c0-1.3-1.06-2.36-2.36-2.36-1.22,0-2.23.93-2.35,2.12-.03-.01-.06-.02-.09-.02h-2.26c-.11,0-.21.09-.21.21s.09.21.21.21h2.26s.05,0,.08-.01v1.86s-.01,0-.02,0h-1.54c-.11,0-.21.09-.21.21s.09.21.21.21h1.54s.01,0,.02,0v1.86s-.05-.01-.08-.01h-2.26c-.11,0-.21.09-.21.21s.09.21.21.21h2.26s.05,0,.08-.02v1.86s-.01,0-.02,0h-1.54c-.11,0-.21.09-.21.21s.09.21.21.21h1.54s.01,0,.02,0v1.86s-.05-.01-.08-.01h-2.26c-.11,0-.21.09-.21.21s.09.21.21.21h2.26s.05,0,.08-.02v1.17c-.95.73-1.5,1.86-1.5,3.06,0,2.13,1.73,3.87,3.87,3.87s3.87-1.73,3.87-3.87c0-1.19-.56-2.32-1.5-3.06ZM10.52,19.15c-1.77,0-3.21-1.44-3.21-3.21,0-1.04.51-2.02,1.37-2.62l.14-.1V2.55c0-.94.76-1.7,1.7-1.7s1.7.76,1.7,1.7v10.67l.14.1c.85.61,1.37,1.59,1.37,2.62,0,1.77-1.44,3.21-3.21,3.21Z"/>
        <path class="cls-1" d="M13.04,15.94c0,1.39-1.13,2.52-2.52,2.52s-2.52-1.13-2.52-2.52c0-1,.61-1.91,1.5-2.31v-3.16h2.03v3.16c.9.4,1.5,1.31,1.5,2.31Z"/>
      </g>
      <rect class="cls-2" width="20" height="20"/>
    </g>
  </g>
</svg>