<?xml version="1.0" encoding="UTF-8"?>
<svg id="Layer_2" data-name="Layer 2" xmlns="http://www.w3.org/2000/svg" viewBox="0 0 20.25 20.25">
  <defs>
    <style>
      .cls-1, .cls-2 {
        fill: none;
      }

      .cls-3 {
        fill: #999;
      }

      .cls-2 {
        stroke: #333;
        stroke-linecap: round;
        stroke-linejoin: round;
        stroke-width: .75px;
      }
    </style>
  </defs>
  <g id="bk">
    <g>
      <g>
        <rect class="cls-1" x=".12" y=".12" width="20" height="20" transform="translate(20.25) rotate(90)"/>
        <path class="cls-3" d="M10.12,20.25C4.54,20.25,0,15.71,0,10.12S4.54,0,10.12,0s10.12,4.54,10.12,10.12-4.54,10.12-10.12,10.12ZM10.12.25C4.68.25.25,4.68.25,10.12s4.43,9.88,9.88,9.88,9.88-4.43,9.88-9.88S15.57.25,10.12.25Z"/>
        <rect class="cls-3" x=".12" y="10" width="20" height=".25"/>
        <rect class="cls-3" x="10" y=".12" width=".25" height="20"/>
        <rect class="cls-3" x="10" y=".12" width=".25" height="20" transform="translate(-4.19 10.13) rotate(-45)"/>
        <rect class="cls-3" x=".12" y="10" width="20" height=".25" transform="translate(-4.19 10.13) rotate(-45)"/>
      </g>
      <path class="cls-2" d="M10.4,1.22c-2.84.58-5.51,2.39-6.81,5.02s-1.06,5.78.69,7.98c.91,1.14,2.2,1.97,3.6,2.39,1.66.5,3.53.41,5.05-.43,1.42-.79,2.45-2.22,2.87-3.8.29-1.08.31-2.26-.06-3.32-.56-1.64-2.07-2.92-3.78-3.18s-3.55.54-4.49,1.99c-.59.9-.82,2.09-.35,3.06.24.49.64.89,1.11,1.18.76.47,1.76.65,2.55.23.49-.26.84-.79.9-1.34s-.25-1.33-.94-1.13"/>
    </g>
  </g>
</svg>