<?xml version="1.0" encoding="UTF-8"?>
<svg id="Layer_2" data-name="Layer 2" xmlns="http://www.w3.org/2000/svg" viewBox="0 0 20 20">
  <defs>
    <style>
      .cls-1 {
        fill: #fff;
      }

      .cls-2 {
        fill: none;
      }
    </style>
  </defs>
  <g id="wh">
    <g>
      <g>
        <g>
          <path class="cls-1" d="M12.97,14.72c-.2.11-.03.09-.1.23-.07.14-.26-.1-.26-.1-.06-.07-.21-.05-.16.11.05.16-.04.32.07.33s.07.16.09.34c.01.19.13.19.24.19s.04-.19.27-.37c.23-.19.29-.29.24-.6-.04-.31-.2-.25-.4-.14Z"/>
          <path class="cls-1" d="M10.39,15.03l.89-.05v.05s-.01.07-.04.09h0c-.17.2-.16.21-.44.21-.22,0-.38-.13-.41-.3Z"/>
          <path class="cls-1" d="M15.16,13.77c-.12.17-.27.35-.43.5-.19.18-.38.3-.53.28-.35-.06-.5-.08-.8-.08h-.02c-.32,0-.45.01-.66.08-.21.07-.36.19-.37.43-.03.24-.12.54-.16.48-.04-.05-.04-.26-.17-.3-.13-.03.02-.26,0-.35-.02-.09-.16-.16-.39.01-.01.02-.03.03-.04.05-.03.02-.05.04-.09.07-.06.05-.17.03-.22-.04-.03-.03-.07-.04-.04,0v.02l.03.03-.78-.37-.09-.16c-.09-.17-.2-.35-.27-.49-.22-.4-.24-.54-.27-.54.02-.01.13-.13.21-.26.09-.14.11-.27.07-.39-.02-.05-.07-.43.13-.87.06-.15.11-.16.24-.19.08-.02.17-.04.27-.1.18.13.45.26.77.17.04.05.05.28.06.36.01.16.02.41.28.43h.08c.78-.05,1.05.04,1.14.1.21.14.34.14.49.09t.06,0s.1.02.25.1c.3.16.71.47,1.24.93h0Z"/>
          <path class="cls-1" d="M16.14,11.82c-.15.46-.02.59-.19.8l-.16.21s-.1.02-.26.29c-.25-.22-.84-.73-1.3-.97-.16-.08-.28-.13-.38-.15-.17-.04-.28,0-.31.02,0,0-.03,0-.08-.04-.29-.18-.81-.2-1.28-.19-.01-.23-.04-.51-.24-.67-.08-.06-.21-.12-.39-.08-.17.04-.31-.04-.41-.11.01-.04.01-.08.01-.12.22-.13.29-.26.39-.62.08.01.2.01.33-.05l.18-.11v-.16c0-.23-.23-.33-.57-.48-.08-.04-.19-.09-.24-.12,0,0,.01-.02.01-.03.04-.08.09-.18.11-.32.02-.1.02-.2.03-.3,0-.1,0-.19.02-.26.03.01.05.02.07.03l.12.08.13-.06s.04-.02.09-.06c.5-.31.66-.38.66-.39.23.04.64-.04.82-.4.05-.11.18-.26.3-.38.23.09.53.12.59.12l.83.06-.31-.24s.07,0,.09.01c.19.01.24,0,.64-.07.27-.05.41-.05.51-.05h.08c.08.3.13.55.13.9,0,.71-.17.9-.27,1.82-.02.22-.04.41-.06.57-.05.5-.06.69.14.65.27-.06.41-.72.51-.47.09.24-.19.86-.34,1.34Z"/>
          <path class="cls-1" d="M8.45,16.55s0,.03,0,0h0Z"/>
          <path class="cls-1" d="M5.11,17.02c.11.14.23-.47.22-.56,0-.01-.01-.03-.03-.05-.13-.15-.37-.16-.52-.02-.01.01-.03.02-.04.04-.28.23-.54.29-.38.45.16.16.65,0,.76.14Z"/>
          <path class="cls-1" d="M6.42,16.97s-.27.08-.19.12c.09.05.26.05.29,0,.03-.05-.1-.12-.1-.12Z"/>
          <path class="cls-1" d="M10.06,15.96c-.09.11-.24,0-.24,0,0,0,.11-.1,0-.24-.12-.16-.25-.29-.25.03s.32.58.15.55c-.16-.04-.3-.27-.3-.38s-.11.11-.09-.32c.02-.44.26-.4,0-.49s-.12.02-.29.12c-.1.05-.16,0-.2.03-.02,0-.03.06-.04.19-.02.32.27.32.32.49.05.16-.36.11-.32.2.04.09.33.21.11.32-.22.12-.24-.16-.43,0-.03.03-.04.04-.06.06.01-.03-.01-.08-.16-.12-.34-.07-.68.29-.47-.05.21-.34.3-.22.47-.39.16-.18.41-.14.24-.32-.17-.19,0-.19-.32,0-.31.21-.38.17-.58.48-.02.03-.04.06-.06.08-.11.21.02.19-.28.33-.33.17-.5.27-.5,0s-.04-.49-.19-.17c-.15.32-.13.21-.42.47-.28.26-.54.3-.49,0,.04-.18.02-.34-.04-.47-.05-.07-.1-.15-.18-.2-.19-.16-.4.01-.45-.25-.05-.27-.36-.82-.11-.53.2.25.33.4.38.45-.02-.06-.12-.35-.09-.5.04-.18-.2-.18-.13-.38.08-.21.34-.26.4-.39s-.06-.3-.28-.21c-.22.09-.32-.15-.09-.17.22-.02.54.42.58.19.04-.22.22-.25-.06-.42-.27-.16-.22-.19-.03-.42.01,0,.02-.01.03-.03.05-.05.08-.12.09-.18.11.09.16.15.17.16.14.3.51.22.73.18.12-.02.24-.07.38-.15.08-.05.16-.11.26-.19.08.12.19.14.26.14.05-.01.09-.02.12-.05.01.01.02.03.03.04.2.26.38.33.66.21.02,0,.08.03.12.04.1.05.35.16.5-.03.04-.02.13-.03.22-.05.05.21.17.46.31.71l.04.06c.06.12.16.31.26.49l.06.18h.14s-.03.1-.01.16c.04.24.22.62.13.73Z"/>
          <path class="cls-1" d="M10.26,11.05s-.05.03-.13.05c-.16.03-.43.1-.6.47-.07.18-.13.38-.16.58-.03.24-.02.48.01.6-.01.04-.05.08-.09.13-.38.03-.56.1-.66.16l-.02-.02s-.09-.04-.14-.05c-.05-.02-.14-.04-.25-.02-.05,0-.09.02-.11.06,0,0-.02-.01-.08-.08-.06-.09-.11-.18-.15-.24-.07-.12-.17-.27-.34-.25-.04,0-.09.02-.13.05-.16-.04-.29.06-.41.16-.23.18-.39.28-.54.3-.05.02-.15.04-.19.04-.04-.06-.14-.18-.38-.38l-.07-.05s.04-.04.07-.06c.29-.15.76-.13.35-.31-.42-.18-.7-.12-.12-.39.25-.11.33-.21.37-.31.05-.13,0-.21.12-.21.21,0,.43-.06-.02-.28-.06-.03-.11-.06-.14-.09h.03s.05-.01.07,0l.22.03.04-.08c.13-.04.26-.1.41-.19.15-.09.25-.19.33-.27.03-.04.08-.09.13-.09.07.03.17.1.3.21.27.24.41.21.67.04.02.02.05.07.08.09.06.09.13.19.26.23.08.02.15.02.21.02h.09s.02.01.1.05l.06.04c.22.13.3.12.64.07.08-.01.13-.01.17-.01Z"/>
          <path class="cls-1" d="M5.82,8.71c.11.13.16.04.16-.06s-.07-.37-.07-.37l-.09-.16c-.09-.16-.17.06-.2.24-.03.19.09.22.2.34Z"/>
          <path class="cls-1" d="M9.53,10.24c-.17-.09-.31-.09-.4-.09h-.04s-.01-.02-.02-.03c-.07-.11-.3-.42-.7-.22-.03.01-.06.02-.08.03,0,0-.03-.02-.05-.03-.06-.06-.11-.1-.16-.13-.49-.37-.73-.19-.96.03-.06.07-.13.14-.23.2-.12.08-.22.11-.27.13l-.43-.29v.21c-.06-.08-.1-.17-.08-.26.06-.26.07-.38.1-.53,0-.04.02-.1.03-.17.06-.24-.03.05-.11-.44-.08-.5.05-.47-.26-.66-.32-.19-.49.02-.57-.49-.07-.51.04-.84.12-.9.08-.06.31.71.37.54.01-.03.02-.07.02-.12,0-.19-.08-.47-.08-.53,0-.08.59-.19.81-.08.01,0,.01.01.02.01l-.19.23.38.13c.15.07.26.15.35.24.21.2.44.29.67.27.15-.01.28-.04.4-.07l.08-.02c.21-.05.33-.08.43-.04.04.03.07.08.09.11.04.08.09.18.12.25-.45.38-.39.68-.31.83.08.16.2.23.27.28q.06.03.06,0l.02.17c.03.27.05.45.19.57.01.01.02.06.03.1.04.12.09.28.22.4s.13.12.13.24c.01.05.02.09.03.13Z"/>
          <path class="cls-1" d="M12.98,6.77c-.11.13-.24.28-.3.42-.06.12-.21.14-.25.14-.11-.04-.21,0-.29.03-.2.08-.53.28-.71.39-.04-.02-.1-.04-.16-.05-.3-.03-.41.15-.46.24-.02.04-.03.08-.04.12-.04.13-.04.26-.03.38,0,.08,0,.17-.01.24s-.05.16-.08.24c-.09.2-.2.47,0,.68.06.06.15.11.25.17-.02.06-.04.12-.05.18-.06.21-.06.25-.2.32-.06,0-.12-.02-.19-.02-.04,0-.08,0-.12.01-.02-.04-.03-.08-.05-.11-.02-.03-.04-.07-.04-.07v-.1c-.04-.26-.14-.37-.3-.52-.03-.03-.06-.12-.08-.19-.03-.1-.06-.21-.16-.3,0-.03-.03-.14-.04-.24v-.13c-.06-.29-.22-.39-.32-.44-.05-.04-.07-.05-.09-.07.01-.06.15-.22.27-.29.17-.12.16-.32,0-.67.06-.07.15-.15.25-.22.09-.07.14-.14.18-.2.27.05.58-.14.76-.28.05.01.11,0,.14,0,.14-.01.29-.07.43-.13.07-.03.16-.07.22-.08.4.09.88.23,1.03.33.12.08.26.14.39.2.02,0,.03.01.05.02Z"/>
          <path class="cls-1" d="M15.78,6.09c-.11,0-.27.01-.52.06-.36.06-.38.06-.53.06-.11,0-.38-.02-.59.01-.13.02-.22.06-.29.13-.09-.03-.17-.06-.21-.09-.11-.1-.25-.16-.41-.23-.11-.05-.23-.1-.35-.18-.06-.04-.15-.08-.25-.12-.26-.1-.6-.19-.81-.24l-.12-.03c-.18-.05-.35.03-.54.11-.06.03-.14.07-.22.08-.01-.03-.03-.08-.05-.14-.05-.09.03-.33.08-.46.03-.1.06-.18.05-.21l.06-.06c.27-.28.19-.47.07-.59l-.09-.07c-.13-.07-.51-.3-.51-.46v-.81c0-.18-.14-.32-.33-.52-.15-.16-.34-.36-.49-.6-.16-.26-.4-.42-.58-.52.06-.02.14-.03.24-.03.45,0,1.71.15,1.71.15,0,0,.07,0,.18.01.26.02.75.05.98.02.06,0,.11-.01.15-.03.26-.1.49-.32.59-.55.06-.15.14-.25.19-.3s.08-.07.08-.07c0,0,.01.02.02.07.03.14.13.47.26.66.2.25.12.71.32,1.07.06.09.1.18.16.26.15.29.3.57.35.79.05.21.46.58.79,1.15.17.26.3.57.39.91.08.31.15.56.22.77Z"/>
          <path class="cls-1" d="M5.13,18.34s-.08,0-.12.01c-.42.06-.79.21-.79.21,0,0-.12-.03-.36.11-.24.14-.35.24-.36.59,0,.02,0,.04,0,.05,0,.26.11.05.21.2.11.17.11,0,.35-.08.24-.08.41.06.67,0,.18-.04.37-.11.53-.17.07-.03.13-.05.18-.08.17-.08.45-.47.36-.64-.08-.15-.31-.25-.67-.22Z"/>
          <path class="cls-1" d="M5.9,3.69c-.05.13.12.22.34.22s.33.09.3-.17c-.03-.26.05-.44-.03-.59,0,0,0,0,0,0-.08-.15-.42-.47-.49-.31,0,0-.34.03-.22.33s.14.4.09.53Z"/>
          <polygon class="cls-1" points="6.59 3.04 6.59 3.04 6.59 3.04 6.59 3.04"/>
          <path class="cls-1" d="M10.4,4.52c-.06.07-.13.16-.14.27,0,.04-.02.09-.04.15-.08.24-.19.56-.06.84.01.02.02.04.02.06-.14.1-.28.16-.34.16-.25-.06-.39,0-.49.19-.02.04-.03.06-.07.09-.1.07-.18.15-.25.22-.02-.02-.04-.03-.06-.04-.27-.15-.54-.08-.8-.02-.1.03-.21.06-.33.07l-.36-.27s-.07-.07-.08-.07v-.31c.11-.09.2-.17.18-.2-.01-.01-.07-.02-.18.01-.05.01-.1.02-.14.03-.33.05-.52-.02-.52-.2,0-.21.35-.32.35-.32,0,0-.08-.34-.33-.35h-.02c-.07,0-.11-.09-.06-.16.05-.06.1-.15.1-.28,0-.3-.07-.22.02-.52.08-.24-.1-.66-.17-.81-.03-.04-.03-.05-.03-.05l-.16-.27s.12.09.25.11c.06.01.11.01.17-.03.16-.12.52-.38.75-.57.22-.18.51-.5.78-.65.01,0,.01-.01.02-.01l.12.05c.16.07.38.2.5.39.16.27.36.48.53.65l.13.15c.04.05.06.08.07.08v.79c0,.23.12.44.37.63.08.07.18.14.27.19Z"/>
        </g>
        <path class="cls-1" d="M11.27,14.96s0,.01.01.02h.04l-.05-.02Z"/>
      </g>
      <rect class="cls-2" width="20" height="20"/>
    </g>
  </g>
</svg>