<?xml version="1.0" encoding="UTF-8"?>
<svg id="Layer_2" data-name="Layer 2" xmlns="http://www.w3.org/2000/svg" viewBox="0 0 20 20">
  <defs>
    <style>
      .cls-1 {
        fill: #fff;
      }

      .cls-2 {
        fill: none;
      }

      .cls-3 {
        fill: #bbb;
      }

      .cls-4 {
        fill: #ccc;
      }

      .cls-5 {
        fill: #aaa;
      }
    </style>
  </defs>
  <g id="wh">
    <g>
      <rect class="cls-2" width="20" height="20"/>
      <g>
        <rect class="cls-1" x="8.71" y="15.98" width="2.58" height="3.04"/>
        <path class="cls-1" d="M12.61,12.23c-.39,1.07-.69,1.95-.9,2.62h-3.42c-.21-.67-.51-1.55-.9-2.62h5.22Z"/>
        <path class="cls-4" d="M13.03,11.23c.4-.77.89-1.66,1.45-2.63H5.52c.56.97,1.05,1.86,1.45,2.63h6.06Z"/>
        <path class="cls-3" d="M16.64,4.98c-.63.92-1.19,1.8-1.68,2.62H5.04c-.49-.82-1.05-1.7-1.68-2.62h13.28Z"/>
        <path class="cls-5" d="M20,.98c-1.16,1.04-2.18,2.04-3.07,3H3.07c-.89-.96-1.91-1.96-3.07-3h20Z"/>
      </g>
    </g>
  </g>
</svg>