<?xml version="1.0" encoding="UTF-8"?>
<svg id="Layer_2" data-name="Layer 2" xmlns="http://www.w3.org/2000/svg" viewBox="0 0 20 20">
  <defs>
    <style>
      .cls-1 {
        fill: #fff;
      }

      .cls-2 {
        fill: #cecece;
      }

      .cls-3 {
        fill: none;
      }

      .cls-4 {
        fill: #dbdbdb;
      }

      .cls-5 {
        fill: #efefef;
      }
    </style>
  </defs>
  <g id="wh">
    <g>
      <rect class="cls-3" width="20" height="20"/>
      <g>
        <g>
          <path class="cls-1" d="M5.14,9.92c-1.02,1.15-1.64,2.66-1.64,4.31H.5c0-2.49.96-4.75,2.54-6.44l2.1,2.13Z"/>
          <path class="cls-5" d="M9.73,4.74v3.01c-1.74.06-3.3.81-4.42,1.98l-2.1-2.12c1.65-1.72,3.97-2.8,6.52-2.87Z"/>
          <path class="cls-4" d="M16.65,7.46l-2.09,2.15c-.43-.43-.92-.8-1.46-1.09-.14-.08-.29-.16-.45-.22-.81-.37-1.71-.57-2.65-.57h-.02v-3h.02c2.59,0,4.94,1.04,6.65,2.73Z"/>
          <path class="cls-2" d="M19.5,14.23h-3c0-1.71-.66-3.27-1.77-4.44l2.09-2.15c1.66,1.71,2.68,4.02,2.68,6.59Z"/>
        </g>
        <g>
          <path class="cls-1" d="M10.85,14.82c-.33.48-.98.59-1.46.26-.47-.33-.58-.98-.25-1.46.25-.35.68-.5,1.08-.41.13.02.26.08.37.16.02.02.05.03.07.07.42.33.5.93.19,1.38Z"/>
          <path class="cls-1" d="M13.52,7.66l-.42.86-2.44,4.92-.44.89c-.05.09-.13.14-.23.14-.03,0-.07,0-.11-.02-.12-.06-.17-.21-.11-.34l.45-.9,2.43-4.91.42-.86c.06-.13.22-.18.34-.12s.17.21.11.34Z"/>
        </g>
      </g>
    </g>
  </g>
</svg>