<?xml version="1.0" encoding="UTF-8"?>
<svg id="Layer_2" data-name="Layer 2" xmlns="http://www.w3.org/2000/svg" viewBox="0 0 20 20">
  <defs>
    <style>
      .cls-1 {
        stroke: #bbb;
        stroke-linecap: round;
        stroke-linejoin: round;
        stroke-width: .5px;
      }

      .cls-1, .cls-2 {
        fill: none;
      }

      .cls-3 {
        fill: #fff;
      }

      .cls-4 {
        fill: #bbb;
      }

      .cls-5 {
        fill: #ddd;
      }

      .cls-6 {
        fill: #ccc;
      }
    </style>
  </defs>
  <g id="wh">
    <g>
      <g>
        <path class="cls-3" d="M20,10c0,5.52-4.48,10-10,10-.72,0-1.42-.08-2.1-.22-3.64-.78-6.55-3.55-7.54-7.11l8.32-2.3,1.32-.37V0c5.52,0,10,4.48,10,10Z"/>
        <path class="cls-5" d="M10,0v10l-1.16-.74L1.57,4.63C3.35,1.85,6.46,0,10,0Z"/>
        <path class="cls-6" d="M10,10L.36,12.67c-.23-.85-.36-1.74-.36-2.67,0-1.98.58-3.82,1.57-5.37l8.43,5.37Z"/>
      </g>
      <circle class="cls-4" cx="10" cy="10" r="1"/>
      <line class="cls-1" x1="10" y1="10" x2="3.28" y2="10"/>
      <rect class="cls-2" width="20" height="20"/>
    </g>
  </g>
</svg>