<?xml version="1.0" encoding="UTF-8"?>
<svg id="Layer_2" data-name="Layer 2" xmlns="http://www.w3.org/2000/svg" viewBox="0 0 20.25 20.25">
  <defs>
    <style>
      .cls-1 {
        fill: #fff;
      }

      .cls-2 {
        fill: #cecece;
      }

      .cls-3 {
        fill: none;
      }
    </style>
  </defs>
  <g id="wh">
    <g>
      <g>
        <rect class="cls-3" x=".12" y=".12" width="20" height="20" transform="translate(20.25) rotate(90)"/>
        <path class="cls-1" d="M10.12,20.25C4.54,20.25,0,15.71,0,10.12S4.54,0,10.12,0s10.12,4.54,10.12,10.12-4.54,10.12-10.12,10.12ZM10.12.25C4.68.25.25,4.68.25,10.12s4.43,9.88,9.88,9.88,9.88-4.43,9.88-9.88S15.57.25,10.12.25Z"/>
        <rect class="cls-1" x=".12" y="10" width="20" height=".25"/>
        <rect class="cls-1" x="10" y=".12" width=".25" height="20"/>
        <rect class="cls-1" x="10" y=".12" width=".25" height="20" transform="translate(-4.19 10.13) rotate(-45)"/>
        <rect class="cls-1" x=".12" y="10" width="20" height=".25" transform="translate(-4.19 10.13) rotate(-45)"/>
      </g>
      <path class="cls-2" d="M9.97,17.3c-.72,0-1.46-.11-2.18-.33-1.51-.45-2.85-1.35-3.79-2.52-1.8-2.26-2.1-5.62-.74-8.38C4.55,3.45,7.2,1.49,10.33.85c.2-.05.4.09.44.29s-.09.4-.29.44c-2.86.59-5.37,2.43-6.54,4.82-1.23,2.5-.97,5.55.65,7.58.84,1.05,2.06,1.86,3.42,2.27,1.67.5,3.4.36,4.76-.4,1.3-.72,2.28-2.02,2.69-3.57.29-1.07.27-2.17-.05-3.1-.52-1.52-1.92-2.69-3.48-2.93-1.57-.24-3.27.51-4.12,1.82-.57.87-.7,1.93-.32,2.69.19.39.53.75.97,1.02.72.45,1.58.53,2.18.21.38-.2.65-.61.7-1.05.03-.26-.06-.57-.21-.69-.05-.04-.12-.08-.26-.04-.2.06-.41-.06-.46-.26-.06-.2.06-.41.26-.46.35-.1.69-.03.95.19.39.33.51.91.46,1.34-.08.68-.51,1.31-1.1,1.63-.84.45-1.96.36-2.92-.24-.56-.35-.99-.81-1.25-1.33-.49-1.01-.35-2.32.37-3.43,1.03-1.57,2.98-2.44,4.86-2.16,1.83.28,3.47,1.66,4.07,3.43.37,1.09.39,2.31.07,3.54-.47,1.74-1.58,3.2-3.05,4.03-.93.52-2.02.79-3.16.79Z"/>
    </g>
  </g>
</svg>