<svg id="그룹_87" data-name="그룹 87" xmlns="http://www.w3.org/2000/svg" xmlns:xlink="http://www.w3.org/1999/xlink" width="28.017" height="22.82" viewBox="0 0 28.017 22.82">
  <defs>
    <clipPath id="clip-path">
      <rect id="사각형_189" data-name="사각형 189" width="28.017" height="22.82" fill="none"/>
    </clipPath>
  </defs>
  <g id="그룹_86" data-name="그룹 86" transform="translate(0)" clip-path="url(#clip-path)">
    <path id="패스_331" data-name="패스 331" d="M173.346,127.008a.45.45,0,0,1-.45-.45V120a.45.45,0,0,1,.747-.337l4.9,4.315a.45.45,0,0,1-.346.785l-2.789-.3-1.695,2.358a.45.45,0,0,1-.365.187m.45-6.01v4.164l1.033-1.437a.449.449,0,0,1,.413-.184l1.64.177Z" transform="translate(-150.676 -104.188)" fill="#333"/>
    <path id="패스_332" data-name="패스 332" d="M167.786,108.56a.45.45,0,0,1-.41-.266l-.3-.659a.45.45,0,1,1,.821-.369l.3.659a.45.45,0,0,1-.41.634" transform="translate(-145.572 -93.25)" fill="#333"/>
    <path id="패스_333" data-name="패스 333" d="M158.035,118.188a.446.446,0,0,1-.189-.042l-.655-.3a.45.45,0,1,1,.379-.816l.656.3a.45.45,0,0,1-.19.858" transform="translate(-136.761 -101.949)" fill="#333"/>
    <path id="패스_334" data-name="패스 334" d="M180.053,107.663a.45.45,0,0,1-.431-.579l.207-.692a.45.45,0,1,1,.861.259l-.207.692a.451.451,0,0,1-.431.321" transform="translate(-156.52 -92.439)" fill="#333"/>
    <path id="패스_335" data-name="패스 335" d="M22.67,19.889H2.02A2.022,2.022,0,0,1,0,17.869V2.021A2.022,2.022,0,0,1,2.02,0H24.6a2.022,2.022,0,0,1,2.02,2.02V16.582a.45.45,0,1,1-.9,0V2.021A1.121,1.121,0,0,0,24.6.9H2.02A1.121,1.121,0,0,0,.9,2.021V17.869a1.121,1.121,0,0,0,1.12,1.12H22.67a.45.45,0,0,1,0,.9" transform="translate(0 -0.001)" fill="#333"/>
    <path id="패스_336" data-name="패스 336" d="M14.067,14.1a.452.452,0,0,1-.317-.131.482.482,0,0,1-.057-.068.5.5,0,0,1-.041-.078.48.48,0,0,1-.026-.084.436.436,0,0,1,0-.176.48.48,0,0,1,.026-.084.568.568,0,0,1,.041-.078.482.482,0,0,1,.057-.068.458.458,0,0,1,.406-.123.623.623,0,0,1,.084.026.451.451,0,0,1,.077.042.411.411,0,0,1,.069.055.472.472,0,0,1,.055.068.382.382,0,0,1,.041.078.391.391,0,0,1,.026.084.435.435,0,0,1,0,.176.391.391,0,0,1-.026.084.351.351,0,0,1-.041.078.472.472,0,0,1-.055.068.429.429,0,0,1-.069.057.553.553,0,0,1-.077.041.627.627,0,0,1-.084.026.515.515,0,0,1-.089.008" transform="translate(-11.867 -11.503)" fill="#333"/>
    <path id="패스_337" data-name="패스 337" d="M26.187,14.094a.492.492,0,0,1-.087-.008.594.594,0,0,1-.085-.026.555.555,0,0,1-.077-.041.494.494,0,0,1-.069-.057.476.476,0,0,1-.055-.068.414.414,0,0,1-.041-.078.392.392,0,0,1-.026-.084.433.433,0,0,1,0-.176.392.392,0,0,1,.026-.084.458.458,0,0,1,.041-.078.474.474,0,0,1,.055-.068.411.411,0,0,1,.069-.055.454.454,0,0,1,.077-.042A.591.591,0,0,1,26.1,13.2a.445.445,0,0,1,.175,0,.589.589,0,0,1,.085.026.452.452,0,0,1,.077.042.4.4,0,0,1,.068.055.41.41,0,0,1,.057.068.56.56,0,0,1,.041.078.391.391,0,0,1,.026.084.436.436,0,0,1,0,.176.39.39,0,0,1-.026.084.5.5,0,0,1-.041.078.411.411,0,0,1-.057.068.482.482,0,0,1-.068.057.553.553,0,0,1-.077.041.592.592,0,0,1-.085.026.493.493,0,0,1-.087.008" transform="translate(-22.429 -11.499)" fill="#333"/>
    <path id="패스_338" data-name="패스 338" d="M38.307,14.094a.518.518,0,0,1-.089-.008.627.627,0,0,1-.083-.026.565.565,0,0,1-.078-.041.484.484,0,0,1-.068-.057.4.4,0,0,1-.055-.068.348.348,0,0,1-.041-.078.392.392,0,0,1-.026-.084.436.436,0,0,1,0-.176.392.392,0,0,1,.026-.084.378.378,0,0,1,.041-.078.421.421,0,0,1,.123-.123.462.462,0,0,1,.078-.042.623.623,0,0,1,.083-.026.451.451,0,0,1,.176,0,.708.708,0,0,1,.085.026.456.456,0,0,1,.077.042.4.4,0,0,1,.068.055.483.483,0,0,1,.057.068.567.567,0,0,1,.041.078.476.476,0,0,1,.026.084.433.433,0,0,1,0,.176.476.476,0,0,1-.026.084.5.5,0,0,1-.041.078.485.485,0,0,1-.057.068.48.48,0,0,1-.068.057.558.558,0,0,1-.077.041.712.712,0,0,1-.085.026.492.492,0,0,1-.087.008" transform="translate(-32.992 -11.499)" fill="#333"/>
    <path id="패스_339" data-name="패스 339" d="M140.279,26.586h-8.9a.45.45,0,0,1,0-.9h8.9a.45.45,0,0,1,0,.9" transform="translate(-114.105 -22.385)" fill="#333"/>
    <path id="패스_340" data-name="패스 340" d="M12.289,26.586H.45a.45.45,0,0,1,0-.9H12.289a.45.45,0,0,1,0,.9" transform="translate(0 -22.385)" fill="#333"/>
    <path id="패스_341" data-name="패스 341" d="M105.781,21.709a.45.45,0,0,1-.429-.316l-.393-1.252-1.156.621a.45.45,0,1,1-.426-.792l1.635-.879a.45.45,0,0,1,.642.262l.555,1.772a.45.45,0,0,1-.429.584" transform="translate(-89.885 -16.59)" fill="#333"/>
    <path id="패스_342" data-name="패스 342" d="M68.824,25.513a.45.45,0,0,1-.082-.892,7.358,7.358,0,0,0,5.579-4.769l.183-.517a.45.45,0,1,1,.848.3l-.183.517a8.26,8.26,0,0,1-6.263,5.354.444.444,0,0,1-.083.008" transform="translate(-59.587 -16.589)" fill="#333"/>
    <path id="패스_343" data-name="패스 343" d="M66.331,93.61H63.054a.45.45,0,0,1-.45-.45V89.352a.45.45,0,0,1,.45-.45h1.639a.45.45,0,1,1,0,.9H63.5v2.909h2.828a.45.45,0,1,1,0,.9" transform="translate(-54.558 -77.476)"/>
    <path id="패스_344" data-name="패스 344" d="M91.868,81.923h-3.31a.45.45,0,0,1-.45-.45V75.941a.45.45,0,0,1,.45-.45H90.3a.45.45,0,1,1,0,.9H89.008v4.633h2.86a.45.45,0,1,1,0,.9" transform="translate(-76.784 -65.789)"/>
    <path id="패스_345" data-name="패스 345" d="M117.357,65.054h-3.045a.45.45,0,0,1-.45-.45v-8.02a.45.45,0,0,1,.45-.45h3.045a.45.45,0,0,1,0,.9h-2.6v7.12h2.145V58a.45.45,0,1,1,.9,0v6.6a.45.45,0,0,1-.45.45" transform="translate(-99.229 -48.92)"/>
  </g>
</svg>
