<svg xmlns="http://www.w3.org/2000/svg" xmlns:xlink="http://www.w3.org/1999/xlink" width="25" height="25" viewBox="0 0 25 25">
  <defs>
    <clipPath id="clip-path">
      <rect id="사각형_188" data-name="사각형 188" width="25" height="25" transform="translate(-0.047 -0.279)" fill="none"/>
    </clipPath>
  </defs>
  <g id="그룹_85" data-name="그룹 85" transform="translate(0.047 0.279)">
    <g id="그룹_84" data-name="그룹 84" transform="translate(0 0)" clip-path="url(#clip-path)">
      <path id="패스_324" data-name="패스 324" d="M113.526,115.913a2.375,2.375,0,0,1-1.691-.7l-5.649-5.649a.49.49,0,0,1,.693-.693l5.649,5.649a1.409,1.409,0,1,0,1.992-1.993l-5.648-5.648a.49.49,0,1,1,.693-.693l5.649,5.649a2.389,2.389,0,0,1-1.688,4.079" transform="translate(-90.603 -91.545)" fill="#333"/>
      <path id="패스_325" data-name="패스 325" d="M10.055,20.111A10.056,10.056,0,0,1,2.945,2.945,10.055,10.055,0,0,1,17.166,17.166a11.6,11.6,0,0,1-3.006,2.071,11.83,11.83,0,0,1-2.681.773,10.146,10.146,0,0,1-1.424.1m0-19.131A9.075,9.075,0,0,0,3.638,16.473a9.015,9.015,0,0,0,6.417,2.658,9.166,9.166,0,0,0,1.274-.089,11.071,11.071,0,0,0,2.386-.678,10.675,10.675,0,0,0,2.756-1.891A9.075,9.075,0,0,0,10.055.98" transform="translate(0.588 -0.356)" fill="#333"/>
      <path id="패스_326" data-name="패스 326" d="M21.143,81.805A1.906,1.906,0,1,1,23.049,79.9a1.908,1.908,0,0,1-1.906,1.906m0-2.832a.926.926,0,1,0,.926.926.927.927,0,0,0-.926-.926" transform="translate(-15.955 -67.425)"/>
      <path id="패스_327" data-name="패스 327" d="M62.712,87.051a1.906,1.906,0,1,1,1.906-1.906,1.908,1.908,0,0,1-1.906,1.906m0-2.832a.926.926,0,1,0,.926.926.927.927,0,0,0-.926-.926" transform="translate(-51.702 -71.937)"/>
      <path id="패스_328" data-name="패스 328" d="M104.281,45.482a1.906,1.906,0,1,1,1.906-1.906,1.908,1.908,0,0,1-1.906,1.906m0-2.832a.926.926,0,1,0,.926.926.927.927,0,0,0-.926-.926" transform="translate(-87.449 -36.19)"/>
      <path id="패스_329" data-name="패스 329" d="M42.879,90.729a.483.483,0,0,1-.062,0L39.8,90.346a.49.49,0,1,1,.122-.973l3.013.379a.49.49,0,0,1-.061.977" transform="translate(-33.272 -77.208)"/>
      <path id="패스_330" data-name="패스 330" d="M78.551,63.728a.49.49,0,0,1-.347-.837l3.82-3.82a.49.49,0,0,1,.693.693l-3.82,3.82a.489.489,0,0,1-.347.144" transform="translate(-66.54 -51.03)"/>
    </g>
  </g>
</svg>
