<svg id="그룹_83" data-name="그룹 83" xmlns="http://www.w3.org/2000/svg" xmlns:xlink="http://www.w3.org/1999/xlink" width="26.369" height="18.613" viewBox="0 0 26.369 18.613">
  <defs>
    <clipPath id="clip-path">
      <rect id="사각형_187" data-name="사각형 187" width="26.369" height="18.613" fill="none"/>
    </clipPath>
  </defs>
  <g id="그룹_82" data-name="그룹 82" transform="translate(0)" clip-path="url(#clip-path)">
    <path id="패스_314" data-name="패스 314" d="M34.031,16.488a.419.419,0,0,1-.419-.419V1.505a.667.667,0,0,0-.666-.666H12.059a.667.667,0,0,0-.666.666V16.069a.419.419,0,1,1-.838,0V1.505a1.506,1.506,0,0,1,1.5-1.5H32.946a1.506,1.506,0,0,1,1.5,1.5V16.069a.419.419,0,0,1-.419.419" transform="translate(-9.291 -0.001)"/>
    <path id="패스_315" data-name="패스 315" d="M24.016,135.056H2.353A2.356,2.356,0,0,1,0,132.7a.419.419,0,0,1,.419-.419H25.95a.419.419,0,0,1,.419.419,2.356,2.356,0,0,1-2.353,2.353M.9,133.122a1.518,1.518,0,0,0,1.456,1.1H24.016a1.518,1.518,0,0,0,1.456-1.1Z" transform="translate(0 -116.443)"/>
    <path id="패스_316" data-name="패스 316" d="M95.849,141.2H92.39a.419.419,0,1,1,0-.838h3.459a.419.419,0,1,1,0,.838" transform="translate(-80.958 -123.552)"/>
    <path id="패스_317" data-name="패스 317" d="M39.149,63.529H37.405a.419.419,0,0,1-.419-.419V58.332a.419.419,0,0,1,.419-.419h1.744a.419.419,0,0,1,.419.419V63.11a.419.419,0,0,1-.419.419m-1.325-.838h.906v-3.94h-.906Z" transform="translate(-32.557 -50.978)"/>
    <path id="패스_318" data-name="패스 318" d="M62.432,47.361H60.839a.419.419,0,0,1-.419-.419V39.964a.419.419,0,0,1,.419-.419h1.593a.419.419,0,0,1,.419.419v6.977a.419.419,0,0,1-.419.419m-1.174-.838h.754V40.383h-.754Z" transform="translate(-53.185 -34.81)"/>
    <path id="패스_319" data-name="패스 319" d="M84.447,73.007H83.006a.419.419,0,0,1-.419-.419V69.1a.419.419,0,0,1,.419-.419h1.441a.419.419,0,0,1,.419.419v3.489a.419.419,0,0,1-.419.419m-1.022-.838h.6v-2.65h-.6Z" transform="translate(-72.697 -60.456)"/>
    <path id="패스_320" data-name="패스 320" d="M105.576,67.431h-1.668a.419.419,0,0,1-.419-.419V62.765a.419.419,0,0,1,.419-.419h1.668a.419.419,0,0,1,.419.419v4.247a.419.419,0,0,1-.419.419m-1.249-.838h.83V63.184h-.83Z" transform="translate(-91.096 -54.88)"/>
    <path id="패스_321" data-name="패스 321" d="M137.669,78.462h-6.724a.419.419,0,1,1,0-.838h6.724a.419.419,0,0,1,0,.838" transform="translate(-114.896 -68.329)"/>
    <path id="패스_322" data-name="패스 322" d="M150.72,65.447h-4.949a.419.419,0,1,1,0-.838h4.949a.419.419,0,1,1,0,.838" transform="translate(-127.947 -56.872)"/>
    <path id="패스_323" data-name="패스 323" d="M137.669,91.955h-6.724a.419.419,0,1,1,0-.838h6.724a.419.419,0,0,1,0,.838" transform="translate(-114.896 -80.206)"/>
  </g>
</svg>
